<?xml version="1.0" standalone="no"?>
<!DOCTYPE svg PUBLIC "-//W3C//DTD SVG 20010904//EN"
 "http://www.w3.org/TR/2001/REC-SVG-20010904/DTD/svg10.dtd">
<svg version="1.0" xmlns="http://www.w3.org/2000/svg"
 width="128.000000pt" height="128.000000pt" viewBox="0 0 128.000000 128.000000"
 preserveAspectRatio="xMidYMid meet">

<g transform="translate(0.000000,128.000000) scale(0.100000,-0.100000)"
fill="#000000" stroke="none">
<path d="M525 1188 c-27 -5 -86 -27 -131 -48 -343 -166 -419 -626 -147 -895
273 -270 727 -194 894 150 202 418 -156 880 -616 793z m215 -297 c5 -11 10
-47 10 -80 l0 -61 61 0 c95 0 99 -5 99 -110 0 -105 -4 -110 -99 -110 l-61 0 0
-61 c0 -95 -5 -99 -110 -99 -105 0 -110 4 -110 99 l0 61 -61 0 c-95 0 -99 5
-99 110 0 105 4 110 99 110 l61 0 0 61 c0 95 5 99 110 99 78 0 91 -2 100 -19z"/>
</g>
</svg>
